<?xml version="1.0" standalone="no"?>
<!DOCTYPE svg PUBLIC "-//W3C//DTD SVG 1.1//EN" "http://www.w3.org/Graphics/SVG/1.1/DTD/svg11.dtd">
<svg xmlns="http://www.w3.org/2000/svg" xmlns:xlink="http://www.w3.org/1999/xlink" version="1.1">

<script xlink:href="js/svg ws signal charting.js"/>
<script xlink:href="js/svg ws 2.4GHz channels.js"/>

<style type="text/css" ><![CDATA[

.graph { font-size: 14px; height: 50%; margin-bottom: 16px; width: 100%; background-color: #000000; background:#444444; fill: #000000; }
.graph svg { overflow: visible; }
.tick { shape-rendering: "crispEdges"; stroke: #ffffff; stroke-width: 1px; }
.mark { shape-rendering: "crispEdges"; stroke: #666666; stroke-width: 1px; }
.ch_center { stroke: #000000; stroke-width: 1px; }
.x_label { font-size: 24px; }
.y_label { font-size: 16px; }
.band { font-size: 225px; color:#555555; opacity: 0.1;}
text { fill: #fff; }

]]>
</style>

<svg class="graph">
	<defs>
		<filter id="blur1" x="0" y="0">
			<feGaussianBlur stdDeviation="2" />
		</filter>
	</defs>
	<text x="35" y="3" dy=".71em" class="band" text-anchor="left">2</text>
	<text x="130" y="3" dy=".71em" class="band" text-anchor="left">.</text>
	<text x="155" y="3" dy=".71em" class="band" text-anchor="left">4GHz</text>
	<svg viewBox="0 0 1000 1000" preserveAspectRatio="none">
		<g id="chartarea" transform="translate(50,0)">
		</g>
		<g transform="translate(50,0)">
			<g class="x axis" transform="translate(0,935)">
				<text class="x_label" y="30" x="450" dy=".71em" text-anchor="middle">Channel</text>
				<g style="opacity: 0;" transform="translate(0,10)">
					<line class="tick" y2="6" x2="0"></line>
				</g>
				<g style="opacity: 1;" transform="translate(66.65,-10)">
					<line class="tick" y2="6" x2="0"></line>
				</g>
				<g style="opacity: 1;" transform="translate(99.975,0)">
					<line id="Ch1" class="ch_center" y2="6" x2="0"></line>
					<text y="9" x="0" dy=".71em" text-anchor="middle"> 1</text>
				</g>
				<g style="opacity: 1;" transform="translate(131.334,-10)">
					<line class="tick" y2="6" x2="0"></line>
				</g>
				<g style="opacity: 1;" transform="translate(162.693,0)">
					<line id="Ch2" class="ch_center" y2="6" x2="0"></line>
					<text y="9" x="0" dy=".71em" text-anchor="middle"> 2</text>
				</g>
				<g style="opacity: 1;" transform="translate(194.052,-10)">
					<line class="tick" y2="6" x2="0"></line>
				</g>
				<g style="opacity: 1;" transform="translate(225.411,0)">
					<line id="Ch3" class="ch_center" y2="6" x2="0"></line>
					<text y="9" x="0" dy=".71em" text-anchor="middle"> 3</text>
				</g>
				<g style="opacity: 1;" transform="translate(256.77,-10)">
					<line class="tick" y2="6" x2="0"></line>
				</g>
				<g style="opacity: 1;" transform="translate(288.129,0)">
					<line id="Ch4" class="ch_center" y2="6" x2="0"></line>
					<text y="9" x="0" dy=".71em" text-anchor="middle"> 4</text>
				</g>
				<g style="opacity: 1;" transform="translate(319.488,-10)">
					<line class="tick" y2="6" x2="0"></line>
				</g>
				<g style="opacity: 1;" transform="translate(350.847,0)">
					<line id="Ch5" class="ch_center" y2="6" x2="0"></line>
					<text y="9" x="0" dy=".71em" text-anchor="middle"> 5</text>
				</g>
				<g style="opacity: 1;" transform="translate(382.206,-10)">
					<line class="tick" y2="6" x2="0"></line>
				</g>
				<g style="opacity: 1;" transform="translate(413.565,0)">
					<line id="Ch6" class="ch_center" y2="6" x2="0"></line>
					<text y="9" x="0" dy=".71em" text-anchor="middle"> 6</text>
				</g>
				<g style="opacity: 1;" transform="translate(444.924,-10)">
					<line class="tick" y2="6" x2="0"></line>
				</g>
				<g style="opacity: 1;" transform="translate(476.283,0)">
					<line id="Ch7" class="ch_center" y2="6" x2="0"></line>
					<text y="9" x="0" dy=".71em" text-anchor="middle"> 7</text>
				</g>
				<g style="opacity: 1;" transform="translate(507.642,-10)">
					<line class="tick" y2="6" x2="0"></line>
				</g>
				<g style="opacity: 1;" transform="translate(539.001,0)">
					<line id="Ch8" class="ch_center" y2="6" x2="0"></line>
					<text y="9" x="0" dy=".71em" text-anchor="middle"> 8</text>
				</g>
				<g style="opacity: 1;" transform="translate(570.36,-10)">
					<line class="tick" y2="6" x2="0"></line>
				</g>
				<g style="opacity: 1;" transform="translate(601.719,0)">
					<line id="Ch9" class="ch_center" y2="6" x2="0"></line>
					<text y="9" x="0" dy=".71em" text-anchor="middle"> 9</text>
				</g>
				<g style="opacity: 1;" transform="translate(633.078,-10)">
					<line class="tick" y2="6" x2="0"></line>
				</g>
				<g style="opacity: 1;" transform="translate(664.437,0)">
					<line id="Ch10" class="ch_center" y2="6" x2="0"></line>
					<text y="9" x="0" dy=".71em" text-anchor="middle">10</text>
				</g>
				<g style="opacity: 1;" transform="translate(695.796,-10)">
					<line class="tick" y2="6" x2="0"></line>
				</g>
				<g style="opacity: 1;" transform="translate(727.155,0)">
					<line id="Ch11" class="ch_center" y2="6" x2="0"></line>
					<text y="9" x="0" dy=".71em" text-anchor="middle">11</text>
				</g>
				<g style="opacity: 1;" transform="translate(758.514,-10)">
					<line class="tick" y2="6" x2="0"></line>
				</g>
				<g style="opacity: 1;" transform="translate(789.873,0)">
					<line id="Ch12" class="ch_center" y2="6" x2="0"></line>
					<text y="9" x="0" dy=".71em" text-anchor="middle">12</text>
				</g>
				<g style="opacity: 1;" transform="translate(821.232,-10)">
					<line class="tick" y2="6" x2="0"></line>
				</g>
				<g style="opacity: 1;" transform="translate(852.591,0)">
					<line id="Ch13" class="ch_center" y2="6" x2="0"></line>
					<text y="9" x="0" dy=".71em" text-anchor="middle">13</text>
				</g>
				<g style="opacity: 1;" transform="translate(882,-10)">
					<line class="tick" y2="6" x2="0"></line>
				</g>
				<text y="43" x="715" dy=".71em" style="font-size:14; fill:#999999" text-anchor="left">stations seen in the last 15 minutes</text>
			</g>
			<g class="y axis" transform="translate(0, 0)">
				<text class="y_label" y="-45" x="-450" dy=".71em" transform="rotate(-90)" text-anchor="middle">Signal Level (in dbm)</text>
				<g style="opacity: 1;" transform="translate(6,925)">
					<line class="tick" x2="-6" y2="0"></line>
					<text x="-15" y="0" dy=".32em" text-anchor="end">-120</text>
				</g>
				<g style="opacity: 1;" transform="translate(0,848.75)">
					<line class="mark" x2="1000" y2="0"></line>
					<text x="-6" y="0" dy=".32em" text-anchor="end">-110</text>
				</g>
				<g style="opacity: 1;" transform="translate(0,772.5)">
					<line class="mark" x2="1000" y2="0"></line>
					<text x="-6" y="0" dy=".32em" text-anchor="end">-100</text>
				</g>
				<g style="opacity: 1;" transform="translate(0,696.25)">
					<line class="mark" x2="1000" y2="0"></line>
					<text x="-6" y="0" dy=".32em" text-anchor="end">-90</text>
				</g>
				<g style="opacity: 1;" transform="translate(0,620)">
					<line class="mark" x2="1000" y2="0"></line>
					<text x="-6" y="0" dy=".32em" text-anchor="end">-80</text>
				</g>
				<g style="opacity: 1;" transform="translate(0,543.75)">
					<line class="mark" x2="1000" y2="0"></line>
					<text x="-6" y="0" dy=".32em" text-anchor="end">-70</text>
				</g>
				<g style="opacity: 1;" transform="translate(0,467.5)">
					<line class="mark" x2="1000" y2="0"></line>
					<text x="-6" y="0" dy=".32em" text-anchor="end">-60</text>
				</g>
				<g style="opacity: 1;" transform="translate(0,391.25)">
					<line class="mark" x2="1000" y2="0"></line>
					<text x="-6" y="0" dy=".32em" text-anchor="end">-50</text>
				</g>
				<g style="opacity: 1;" transform="translate(0,315)">
					<line class="mark" x2="1000" y2="0"></line>
					<text x="-6" y="0" dy=".32em" text-anchor="end">-40</text>
				</g>
				<g style="opacity: 1;" transform="translate(0,238.75)">
					<line class="mark" x2="1000" y2="0"></line>
					<text x="-6" y="0" dy=".32em" text-anchor="end">-30</text>
				</g>
				<g style="opacity: 1;" transform="translate(0,162.5)">
					<line class="mark" x2="1000" y2="0"></line>
					<text x="-6" y="0" dy=".32em" text-anchor="end">-20</text>
				</g>
				<g style="opacity: 1;" transform="translate(0,86.25)">
					<line class="mark" x2="1000" y2="0"></line>
					<text x="-6" y="0" dy=".32em" text-anchor="end">-10</text>
				</g>
				<g style="opacity: 1;" transform="translate(0,10)">
					<line class="tick" x2="-6" y2="0"></line>
					<text x="-15" y="0" dy=".32em" text-anchor="end">0</text>
				</g>
			</g>
		</g>
	</svg>
</svg>

</svg>
